<?xml version="1.0" encoding="UTF-8"?>
<svg id="Layer_2" data-name="Layer 2" xmlns="http://www.w3.org/2000/svg" viewBox="0 0 199.75 53.04">
  <defs>
    <style>
      .cls-1 {
        fill: #6d8286;
      }

      .cls-1, .cls-2, .cls-3 {
        stroke-width: 0px;
      }

      .cls-2 {
        fill: #32bbed;
      }

      .cls-3 {
        fill: #231f20;
      }
    </style>
  </defs>
  <g id="Layer_1-2" data-name="Layer 1">
    <g>
      <path class="cls-1" d="m0,49.29v-29.21h5.1l.36,2.23h.29c16.91-12.12,20.26,23.45.3,18.83v8.15H0Zm8.47-12.6c9.05.7,5.5-17.43-2.42-10.57v10.32c.72.13,1.66.25,2.42.25"/>
      <path class="cls-1" d="m22.92,40.92v-20.83h4.97l.46,2.68h.3c1.39-2.6,4.48-3.34,7.2-2.82v5.48c-2.36-.41-5.25-.11-6.87,1.83v13.65h-6.05Z"/>
      <path class="cls-1" d="m48.36,41.32c-11.69,1.81-15.46-14.54-7.02-20.31,8.27-4.31,15.58,2.27,14.29,11.25h-15.25v-3.48h10.57l-.97.36c.9-7.33-7.83-7.31-7.01-.02-1.23,8.47,5.01,8.34,11.5,6.95v4.55c-2.11.49-4.03.7-6.11.7"/>
      <polygon class="cls-3" points="66.97 40.92 57.09 12.76 65.66 12.76 72.66 34.43 72.07 34.43 79.07 12.76 87.15 12.76 77.24 40.92 66.97 40.92"/>
      <path class="cls-3" d="m93.92,8.66c-6.7.71-6.7-9.3,0-8.57,6.71-.74,6.7,9.29,0,8.57m-4.09,4.09h8.21v28.16h-8.21V12.76Z"/>
      <path class="cls-3" d="m111.04,41.43c-13.87-.22-11-18.17,2.57-17.01,0,0,5.92-.49,5.92-.49l.88,4.53-5.97.49c-9.49,1.15-2.09,10.9,3.76,4.99.24-13.02,1.65-18.12-14.03-14.26v-6.18c25.58-5.93,22.1,8.51,22.03,27.41h-6.74l-.57-2.81h-.39c-1.72,2.4-4.55,3.31-7.46,3.32"/>
      <path class="cls-3" d="m133,53.04l-5.3-3.53c6.77-7.39,3.21-27.66,4.04-36.76h8.21c-.74,11.53,3.3,31.73-6.95,40.29m2.75-44.43c-6.7.71-6.7-9.3,0-8.57,6.71-.74,6.7,9.29,0,8.57"/>
      <path class="cls-3" d="m159.9,41.46c-15.8,2.45-20.91-19.67-9.49-27.47,11.45-5.74,20.89,2.85,19.32,15.21h-20.62v-4.71h14.29l-1.31.49c1.22-9.91-10.59-9.88-9.47-.03-1.66,11.45,6.78,11.28,15.55,9.39v6.15c-2.85.66-5.45.95-8.26.95"/>
      <rect class="cls-2" x="180.67" y="12.78" width="19.08" height="10.59"/>
      <rect class="cls-2" x="180.67" y="30.33" width="19.08" height="10.59"/>
    </g>
  </g>
</svg>